<?xml version="1.0" standalone="no"?><!DOCTYPE svg PUBLIC "-//W3C//DTD SVG 1.1//EN" "http://www.w3.org/Graphics/SVG/1.1/DTD/svg11.dtd"><svg t="1637248940674" class="icon" viewBox="0 0 1024 1024" version="1.1" xmlns="http://www.w3.org/2000/svg" p-id="2658" width="128" height="128" xmlns:xlink="http://www.w3.org/1999/xlink"><defs><style type="text/css">:not(i):not(.fa):not([class*="icon"]):not([class*="logo"]):not([class*="code"]) { -webkit-text-stroke: 0.065px currentcolor; paint-order: stroke; font-feature-settings: "liga" 0; font-variant: no-common-ligatures proportional-nums; font-optical-sizing: auto; font-stretch: normal; font-kerning: auto; text-size-adjust: none; font-family: "Microsoft YaHei", system-ui, -apple-system, BlinkMacSystemFont, Helvetica, sans-serif, iconfont, icomoon, FontAwesome, "Material Icons Extended", "Apple Color Emoji", "Segoe UI Emoji", "Segoe UI Symbol", "Noto Color Emoji", emoji; -webkit-font-smoothing: antialiased !important; text-rendering: optimizelegibility !important; }
undefined { font-family: 宋体; src: local("Microsoft YaHei"); }
undefined { font-family: SimSun; src: local("Microsoft YaHei"); }
undefined { font-family: 新宋体; src: local("Microsoft YaHei"); }
undefined { font-family: NSimSun; src: local("Microsoft YaHei"); }
undefined { font-family: 黑体; src: local("Microsoft YaHei"); }
undefined { font-family: SimHei; src: local("Microsoft YaHei"); }
undefined { font-family: "Microsoft YaHei UI"; src: local("Microsoft YaHei"); }
undefined { font-family: "Microsoft JhengHei UI"; src: local("Microsoft YaHei"); }
undefined { font-family: MingLiU; src: local("Microsoft YaHei"); }
undefined { font-family: MingLiU-ExtB; src: local("Microsoft YaHei"); }
undefined { font-family: PMingLiU; src: local("Microsoft YaHei"); }
undefined { font-family: PMingLiU-ExtB; src: local("Microsoft YaHei"); }
undefined { font-family: Arial; src: local("Microsoft YaHei"); }
undefined { font-family: Georgia; src: local("Microsoft YaHei"); }
undefined { font-family: "MS Gothic"; src: local("Microsoft YaHei"); }
undefined { font-family: "MS PGothic"; src: local("Microsoft YaHei"); }
undefined { font-family: "MS UI Gothic"; src: local("Microsoft YaHei"); }
undefined { font-family: "Yu Gothic"; src: local("Microsoft YaHei"); }
undefined { font-family: "Yu Gothic UI"; src: local("Microsoft YaHei"); }
undefined { font-family: "Malgun Gothic"; src: local("Microsoft YaHei"); }
</style></defs><path d="M435.2 192.2c-25.9-1.25-49.32 18.312-51.04 44.74-1.76 26.46 18.24 49.26 44.64 49.26 159.06 10.376 296.8 148.18 307.2 307.2 1.656 25.38 22.78 44.86 47.88 44.86 1.032 0 2.094-0.062 3.156-0.126 26.44-1.686 46.5-24.56 44.78-51C818.6 383.6 640.6 205.6 435.2 192.2zM448 0c-35.4 0-64 28.62-64 64s28.66 64 64 64c247 0 448 201 448 448 0 35.38 28.66 64 64 64s64-28.62 64-64C1024 258.4 765.6 0 448 0z m-103.4 453.6c-29.2-5.8-56.6 18-56.6 47.6v100.74c0 20.5 14.254 36.74 33.5 42.2 36.26 13.5 62.52 48.76 62.52 88.2 0 53-43 94.2-96.02 94.2-53 0-96.02-43-96.02-94.2V240c0-26.5-21.5-46.2-48.02-46.2l-96.02 0.016C21.5 192.04 0 213.6 0 240v494.2c0 179 164.28 320.4 350 281.4 108.76-23 196.54-111 219.6-219.4 34.8-164-74-312.6-225-342.6z" p-id="2659" fill="#2c2c2c"></path></svg>